<svg width="69" height="79" viewBox="0 0 69 79" fill="none" xmlns="http://www.w3.org/2000/svg">
<path d="M68.2 41.16V59.06L34.1 78.75V57.28L49.61 48.33V27.71L68.2 41.16ZM34.1 0V21.47L18.59 30.42V51.04L0 37.59V19.69L34.1 0Z" fill="#00B0E5"/>
<path d="M0 37.59L18.59 41.25V51.04L0 37.59Z" fill="#0083AC"/>
<path d="M34.1 57.28L15.51 68.02L0 59.06V37.59L18.59 48.33L34.1 57.28Z" fill="#69CFEF"/>
<path d="M68.2 41.16L49.61 37.5V27.71L68.2 41.16Z" fill="#0083AC"/>
<path d="M68.2 19.69V41.16L49.61 30.42L34.1 21.47L52.7 10.73L68.2 19.69Z" fill="#69CFEF"/>
</svg>
